<?xml version="1.0" encoding="utf-8"?>
<!-- Generator: Adobe Illustrator 26.0.0, SVG Export Plug-In . SVG Version: 6.00 Build 0)  -->
<svg version="1.1" id="Capa_1" xmlns="http://www.w3.org/2000/svg" xmlns:xlink="http://www.w3.org/1999/xlink" x="0px" y="0px"
	 viewBox="0 0 1366 1366" style="enable-background:new 0 0 1366 1366;" xml:space="preserve">
<style type="text/css">
	.st0{fill:#0C0A34;}
	.st1{fill:#FFFFFF;}
	.st2{fill:#0C1F4A;}
	.st3{fill:#CEA715;}
</style>
<g>
	<path class="st3" d="M15.28,679.04C14.95,311.51,314.64,15.09,686.42,15.22c364.6,0.13,664.29,299.63,664.3,663.88
		c0.01,373.8-295.55,671.83-666.1,671.67C309.9,1350.62,15.61,1055.27,15.28,679.04z M916.73,930.16
		c-77.06-81.5-151.99-160.74-229.29-242.49c81.64-86.67,162.54-172.56,246.22-261.4c-59.83-52.5-118.29-103.79-171.76-150.71
		C626.89,407.68,494.52,537.23,359.32,669.54c130.8,138.04,260.41,274.82,393.47,415.25C809.32,1031.47,862.05,981.73,916.73,930.16
		z"/>
	<path class="st1" d="M752.78,1084.79c56.54-53.32,109.27-103.06,163.95-154.63c-77.06-81.5-151.99-160.74-229.29-242.49
		c81.64-86.67,162.54-172.56,246.22-261.4c-59.83-52.5-118.29-103.79-171.76-150.71C626.89,407.68,494.52,537.23,359.32,669.54
		C490.11,807.58,619.72,944.36,752.78,1084.79z"/>
</g>
</svg>
