<?xml version="1.0" encoding="utf-8"?>
<!-- Generator: Adobe Illustrator 26.0.0, SVG Export Plug-In . SVG Version: 6.00 Build 0)  -->
<svg version="1.1" id="Capa_1" xmlns="http://www.w3.org/2000/svg" xmlns:xlink="http://www.w3.org/1999/xlink" x="0px" y="0px"
	 viewBox="0 0 1366 1366" style="enable-background:new 0 0 1366 1366;" xml:space="preserve">
<style type="text/css">
	.st0{fill:#0C0A34;}
	.st1{fill:#FFFFFF;}
	.st2{fill:#0C1F4A;}
	.st3{fill:#CEA715;}
</style>
<g>
	<path class="st3" d="M681.37,1350.78c-370.54,0.16-666.1-297.87-666.1-671.67c0.01-364.26,299.69-663.76,664.3-663.88
		c371.78-0.13,671.47,296.29,671.15,663.82C1350.39,1055.27,1056.1,1350.62,681.37,1350.78z M613.22,1084.79
		c133.06-140.43,262.67-277.21,393.47-415.25C871.48,537.23,739.11,407.68,604.1,275.56c-53.47,46.92-111.93,98.21-171.76,150.71
		c83.68,88.84,164.58,174.73,246.22,261.4c-77.3,81.75-152.23,160.99-229.29,242.49C503.95,981.73,556.68,1031.47,613.22,1084.79z"
		/>
	<path class="st1" d="M613.22,1084.79c-56.54-53.32-109.27-103.06-163.95-154.63c77.06-81.5,151.99-160.74,229.29-242.49
		C596.92,601,516.02,515.11,432.34,426.27c59.83-52.5,118.29-103.79,171.76-150.71c135.01,132.12,267.39,261.67,402.59,393.98
		C875.89,807.58,746.28,944.36,613.22,1084.79z"/>
</g>
</svg>
