<?xml version="1.0" encoding="utf-8"?>
<!-- Generator: Adobe Illustrator 26.0.0, SVG Export Plug-In . SVG Version: 6.00 Build 0)  -->
<svg version="1.1" id="Capa_1" xmlns="http://www.w3.org/2000/svg" xmlns:xlink="http://www.w3.org/1999/xlink" x="0px" y="0px"
	 viewBox="0 0 1366 1366" style="enable-background:new 0 0 1366 1366;" xml:space="preserve">
<style type="text/css">
	.st0{fill:#0C0A34;}
	.st1{fill:#FFFFFF;}
	.st2{fill:#0C1F4A;}
	.st3{fill:#CEA715;}
</style>
<g>
	<path class="st3" d="M686.42,15.22c364.6,0.13,664.29,299.63,664.3,663.88c0.01,373.8-295.55,671.83-666.1,671.67
		c-374.72-0.16-669.02-295.5-669.35-671.73C14.95,311.51,314.64,15.09,686.42,15.22z"/>
	<path class="st1" d="M690,818.87c3.85,0,7.69,0,11.54,0c95.06,0.01,190.12,0.08,285.18,0.01c67.71-0.05,121.77-42.74,134.23-109.38
		c14.74-78.84-40.09-146.22-111.59-156.16c-12.09-1.68-24.42-2.18-36.64-2.2c-90.7-0.17-181.41-0.08-272.11-0.07
		c-3.45,0-6.91,0-13.16,0c13.39-13.46,24.7-25.34,36.56-36.66c18.73-17.87,32.77-38.44,39.23-63.8
		c14.83-58.22-14.52-124.26-78.96-143.94c-48.41-14.79-91.87-4-127.73,31.54c-96.21,95.35-192.02,191.1-287.49,287.19
		c-35.23,35.46-35.18,83.08-0.04,118.49c95.42,96.14,190.85,192.29,287.41,287.27c34.65,34.09,78.16,42.99,123.99,26.84
		c43.4-15.3,70.38-46.87,78.53-93.15c7.34-41.66-4.46-77.33-33.78-107.35c-11.86-12.15-24.29-23.75-36.46-35.6
		C689.14,820.87,689.57,819.87,690,818.87z"/>
</g>
</svg>
