<?xml version="1.0" encoding="utf-8"?>
<!-- Generator: Adobe Illustrator 26.0.0, SVG Export Plug-In . SVG Version: 6.00 Build 0)  -->
<svg version="1.1" id="Capa_1" xmlns="http://www.w3.org/2000/svg" xmlns:xlink="http://www.w3.org/1999/xlink" x="0px" y="0px"
	 viewBox="0 0 1366 1366" style="enable-background:new 0 0 1366 1366;" xml:space="preserve">
<style type="text/css">
	.st0{fill:#0C0A34;}
	.st1{fill:#FFFFFF;}
	.st2{fill:#0C1F4A;}
	.st3{fill:#CEA715;}
</style>
<g>
	<path class="st3" d="M679.58,15.22c-364.6,0.13-664.29,299.63-664.3,663.88c-0.01,373.8,295.55,671.83,666.1,671.67
		c374.72-0.16,669.02-295.5,669.35-671.73C1351.05,311.51,1051.36,15.09,679.58,15.22z"/>
	<path class="st1" d="M676,818.87c-3.85,0-7.69,0-11.54,0c-95.06,0.01-190.12,0.08-285.18,0.01
		c-67.71-0.05-121.77-42.74-134.23-109.38c-14.74-78.84,40.09-146.22,111.59-156.16c12.09-1.68,24.42-2.18,36.64-2.2
		c90.7-0.17,181.41-0.08,272.11-0.07c3.45,0,6.91,0,13.16,0c-13.39-13.46-24.7-25.34-36.56-36.66
		c-18.73-17.87-32.77-38.44-39.23-63.8c-14.83-58.22,14.52-124.26,78.96-143.94c48.41-14.79,91.87-4,127.73,31.54
		c96.21,95.35,192.02,191.1,287.49,287.19c35.23,35.46,35.18,83.08,0.04,118.49c-95.42,96.14-190.85,192.29-287.41,287.27
		c-34.65,34.09-78.16,42.99-123.99,26.84c-43.4-15.3-70.38-46.87-78.53-93.15c-7.34-41.66,4.46-77.33,33.78-107.35
		c11.86-12.15,24.29-23.75,36.46-35.6C676.86,820.87,676.43,819.87,676,818.87z"/>
</g>
</svg>
