<?xml version="1.0" encoding="utf-8"?>
<!-- Generator: Adobe Illustrator 26.0.0, SVG Export Plug-In . SVG Version: 6.00 Build 0)  -->
<svg version="1.1" id="Capa_1" xmlns="http://www.w3.org/2000/svg" xmlns:xlink="http://www.w3.org/1999/xlink" x="0px" y="0px"
	 viewBox="0 0 1366 1366" style="enable-background:new 0 0 1366 1366;" xml:space="preserve">
<style type="text/css">
	.st0{fill:#0C0A34;}
	.st1{fill:#FFFFFF;}
	.st2{fill:#0C1F4A;}
	.st3{fill:#CEA715;}
</style>
<path class="st0" d="M5263.85,1350.78c-93.7-88.38-181.1-170.81-271.73-256.29c127.72-135.07,251.91-266.41,380.03-401.9
	c-135.3-143.65-269.39-286-408.08-433.24c99.16-87.01,196.04-172.02,284.67-249.78c223.76,218.98,443.16,433.69,667.24,652.98
	C5699.2,891.33,5484.39,1118.04,5263.85,1350.78z"/>
<g>
	<path class="st0" d="M5433.37,3058.21c-370.54,0.16-666.1-297.87-666.1-671.67c0.01-364.26,299.69-663.76,664.3-663.88
		c371.78-0.13,671.47,296.29,671.15,663.82C6102.39,2762.7,5808.1,3058.04,5433.37,3058.21z M5365.22,2792.22
		c133.06-140.43,262.67-277.21,393.47-415.25c-135.2-132.31-267.58-261.86-402.59-393.98c-53.47,46.92-111.93,98.21-171.76,150.71
		c83.68,88.84,164.58,174.73,246.22,261.4c-77.3,81.75-152.23,160.99-229.29,242.49
		C5255.95,2689.16,5308.68,2738.89,5365.22,2792.22z"/>
	<path class="st1" d="M5365.22,2792.22c-56.54-53.32-109.27-103.06-163.95-154.63c77.06-81.5,151.99-160.74,229.29-242.49
		c-81.64-86.67-162.54-172.56-246.22-261.4c59.83-52.5,118.29-103.79,171.76-150.71c135.01,132.12,267.39,261.67,402.59,393.98
		C5627.89,2515.01,5498.28,2651.79,5365.22,2792.22z"/>
</g>
<path class="st2" d="M6644.82,1350.78c-93.7-88.38-181.1-170.81-271.73-256.29c127.72-135.07,251.91-266.41,380.03-401.9
	c-135.3-143.65-269.39-286-408.08-433.24c99.16-87.01,196.04-172.02,284.67-249.78c223.76,218.98,443.16,433.69,667.24,652.98
	C7080.17,891.33,6865.36,1118.04,6644.82,1350.78z"/>
<g>
	<path class="st2" d="M6819.37,3058.21c-370.54,0.16-666.1-297.87-666.1-671.67c0.01-364.26,299.69-663.76,664.3-663.88
		c371.78-0.13,671.47,296.29,671.15,663.82C7488.39,2762.7,7194.1,3058.04,6819.37,3058.21z M6751.22,2792.22
		c133.06-140.43,262.67-277.21,393.47-415.25c-135.2-132.31-267.58-261.86-402.59-393.98c-53.47,46.92-111.93,98.21-171.76,150.71
		c83.68,88.84,164.58,174.73,246.22,261.4c-77.3,81.75-152.23,160.99-229.29,242.49
		C6641.95,2689.16,6694.68,2738.89,6751.22,2792.22z"/>
	<path class="st1" d="M6751.22,2792.22c-56.54-53.32-109.27-103.06-163.95-154.63c77.06-81.5,151.99-160.74,229.29-242.49
		c-81.64-86.67-162.54-172.56-246.22-261.4c59.83-52.5,118.29-103.79,171.76-150.71c135.01,132.12,267.39,261.67,402.59,393.98
		C7013.89,2515.01,6884.28,2651.79,6751.22,2792.22z"/>
</g>
<path class="st3" d="M8030.69,1352.19c-93.7-88.38-181.1-170.81-271.73-256.29c127.72-135.07,251.91-266.41,380.03-401.9
	c-135.3-143.65-269.39-286-408.08-433.24c99.16-87.01,196.04-172.02,284.67-249.78c223.76,218.98,443.16,433.69,667.24,652.98
	C8466.04,892.74,8251.23,1119.45,8030.69,1352.19z"/>
<g>
	<path class="st3" d="M8205.37,3058.21c-370.54,0.16-666.1-297.87-666.1-671.67c0.01-364.26,299.69-663.76,664.3-663.88
		c371.78-0.13,671.47,296.29,671.15,663.82C8874.39,2762.7,8580.1,3058.04,8205.37,3058.21z M8137.22,2792.22
		c133.06-140.43,262.67-277.21,393.47-415.25c-135.2-132.31-267.58-261.86-402.59-393.98c-53.47,46.92-111.93,98.21-171.76,150.71
		c83.68,88.84,164.58,174.73,246.22,261.4c-77.3,81.75-152.23,160.99-229.29,242.49
		C8027.95,2689.16,8080.68,2738.89,8137.22,2792.22z"/>
	<path class="st1" d="M8137.22,2792.22c-56.54-53.32-109.27-103.06-163.95-154.63c77.06-81.5,151.99-160.74,229.29-242.49
		c-81.64-86.67-162.54-172.56-246.22-261.4c59.83-52.5,118.29-103.79,171.76-150.71c135.01,132.12,267.39,261.67,402.59,393.98
		C8399.89,2515.01,8270.28,2651.79,8137.22,2792.22z"/>
</g>
<g>
	<path class="st0" d="M5431.58,3273.22c-364.6,0.13-664.29,299.63-664.3,663.88c-0.01,373.8,295.55,671.83,666.1,671.67
		c374.72-0.16,669.02-295.5,669.35-671.73C6103.05,3569.51,5803.36,3273.09,5431.58,3273.22z"/>
	<path class="st1" d="M5428,4076.87c-3.85,0-7.69,0-11.54,0c-95.06,0.01-190.12,0.08-285.18,0.01
		c-67.71-0.05-121.77-42.74-134.23-109.38c-14.74-78.84,40.09-146.22,111.59-156.16c12.09-1.68,24.42-2.18,36.64-2.2
		c90.7-0.17,181.41-0.08,272.11-0.07c3.45,0,6.91,0,13.16,0c-13.39-13.46-24.7-25.34-36.56-36.66
		c-18.73-17.87-32.77-38.44-39.23-63.8c-14.83-58.22,14.52-124.26,78.96-143.94c48.41-14.79,91.87-4,127.73,31.54
		c96.21,95.35,192.02,191.1,287.49,287.19c35.23,35.46,35.18,83.08,0.04,118.49c-95.42,96.14-190.85,192.29-287.41,287.27
		c-34.66,34.09-78.16,42.99-123.99,26.84c-43.4-15.3-70.38-46.87-78.53-93.15c-7.34-41.66,4.46-77.33,33.78-107.35
		c11.86-12.15,24.29-23.75,36.46-35.6C5428.86,4078.87,5428.43,4077.87,5428,4076.87z"/>
</g>
<g>
	<path class="st3" d="M8203.58,3273.22c-364.6,0.13-664.29,299.63-664.3,663.88c-0.01,373.8,295.55,671.83,666.1,671.67
		c374.72-0.16,669.02-295.5,669.35-671.73C8875.05,3569.51,8575.36,3273.09,8203.58,3273.22z"/>
	<path class="st1" d="M8200,4076.87c-3.84,0-7.69,0-11.54,0c-95.06,0.01-190.12,0.08-285.18,0.01
		c-67.71-0.05-121.77-42.74-134.23-109.38c-14.74-78.84,40.09-146.22,111.59-156.16c12.09-1.68,24.42-2.18,36.64-2.2
		c90.7-0.17,181.41-0.08,272.11-0.07c3.45,0,6.91,0,13.16,0c-13.39-13.46-24.7-25.34-36.56-36.66
		c-18.73-17.87-32.77-38.44-39.23-63.8c-14.83-58.22,14.52-124.26,78.96-143.94c48.4-14.79,91.87-4,127.73,31.54
		c96.21,95.35,192.02,191.1,287.49,287.19c35.23,35.46,35.18,83.08,0.04,118.49c-95.42,96.14-190.85,192.29-287.42,287.27
		c-34.66,34.09-78.16,42.99-123.99,26.84c-43.4-15.3-70.38-46.87-78.53-93.15c-7.34-41.66,4.46-77.33,33.78-107.35
		c11.86-12.15,24.29-23.75,36.46-35.6C8200.86,4078.87,8200.43,4077.87,8200,4076.87z"/>
</g>
<g>
	<path class="st2" d="M6817.58,3273.22c-364.6,0.13-664.29,299.63-664.3,663.88c-0.01,373.8,295.55,671.83,666.1,671.67
		c374.72-0.16,669.02-295.5,669.35-671.73C7489.05,3569.51,7189.36,3273.09,6817.58,3273.22z"/>
	<path class="st1" d="M6814,4076.87c-3.85,0-7.69,0-11.54,0c-95.06,0.01-190.12,0.08-285.18,0.01
		c-67.71-0.05-121.77-42.74-134.23-109.38c-14.74-78.84,40.09-146.22,111.59-156.16c12.09-1.68,24.42-2.18,36.64-2.2
		c90.7-0.17,181.41-0.08,272.11-0.07c3.45,0,6.91,0,13.16,0c-13.39-13.46-24.7-25.34-36.56-36.66
		c-18.73-17.87-32.77-38.44-39.23-63.8c-14.83-58.22,14.52-124.26,78.96-143.94c48.41-14.79,91.87-4,127.73,31.54
		c96.21,95.35,192.02,191.1,287.49,287.19c35.23,35.46,35.18,83.08,0.04,118.49c-95.42,96.14-190.85,192.29-287.41,287.27
		c-34.66,34.09-78.16,42.99-123.99,26.84c-43.4-15.3-70.38-46.87-78.53-93.15c-7.34-41.66,4.46-77.33,33.78-107.35
		c11.86-12.15,24.29-23.75,36.46-35.6C6814.86,4078.87,6814.43,4077.87,6814,4076.87z"/>
</g>
<path class="st0" d="M3626.15,1350.78c93.7-88.38,181.1-170.81,271.72-256.29c-127.72-135.07-251.91-266.41-380.03-401.9
	c135.3-143.65,269.39-286,408.08-433.24c-99.16-87.01-196.04-172.02-284.67-249.78c-223.76,218.98-443.16,433.69-667.24,652.98
	C3190.8,891.33,3405.61,1118.04,3626.15,1350.78z"/>
<g>
	<path class="st0" d="M2787.28,2386.47c-0.32-367.54,299.36-663.95,671.15-663.82c364.6,0.13,664.29,299.63,664.3,663.88
		c0.01,373.8-295.55,671.83-666.1,671.67C3081.9,3058.04,2787.61,2762.7,2787.28,2386.47z M3688.73,2637.59
		c-77.06-81.5-151.99-160.74-229.29-242.49c81.64-86.67,162.54-172.56,246.22-261.4c-59.83-52.5-118.29-103.79-171.76-150.71
		c-135.01,132.12-267.39,261.67-402.59,393.98c130.8,138.04,260.41,274.82,393.47,415.25
		C3581.32,2738.89,3634.05,2689.16,3688.73,2637.59z"/>
	<path class="st1" d="M3524.78,2792.22c56.54-53.32,109.27-103.06,163.95-154.63c-77.06-81.5-151.99-160.74-229.29-242.49
		c81.64-86.67,162.54-172.56,246.22-261.4c-59.83-52.5-118.29-103.79-171.76-150.71c-135.01,132.12-267.39,261.67-402.59,393.98
		C3262.11,2515.01,3391.72,2651.79,3524.78,2792.22z"/>
</g>
<path class="st2" d="M2245.18,1350.78c93.7-88.38,181.1-170.81,271.73-256.29c-127.72-135.07-251.91-266.41-380.03-401.9
	c135.3-143.65,269.39-286,408.08-433.24c-99.16-87.01-196.04-172.02-284.67-249.78c-223.76,218.98-443.16,433.69-667.24,652.98
	C1809.83,891.33,2024.64,1118.04,2245.18,1350.78z"/>
<g>
	<path class="st2" d="M1401.28,2386.47c-0.32-367.54,299.36-663.95,671.15-663.82c364.6,0.13,664.29,299.63,664.3,663.88
		c0.01,373.8-295.55,671.83-666.1,671.67C1695.9,3058.04,1401.61,2762.7,1401.28,2386.47z M2302.73,2637.59
		c-77.06-81.5-151.99-160.74-229.29-242.49c81.64-86.67,162.54-172.56,246.22-261.4c-59.83-52.5-118.29-103.79-171.76-150.71
		c-135.01,132.12-267.39,261.67-402.59,393.98c130.8,138.04,260.41,274.82,393.47,415.25
		C2195.32,2738.89,2248.05,2689.16,2302.73,2637.59z"/>
	<path class="st1" d="M2138.78,2792.22c56.54-53.32,109.27-103.06,163.95-154.63c-77.06-81.5-151.99-160.74-229.29-242.49
		c81.64-86.67,162.54-172.56,246.22-261.4c-59.83-52.5-118.29-103.79-171.76-150.71c-135.01,132.12-267.39,261.67-402.59,393.98
		C1876.11,2515.01,2005.72,2651.79,2138.78,2792.22z"/>
</g>
<path class="st3" d="M859.31,1352.19c93.7-88.38,181.1-170.81,271.72-256.29C1003.31,960.83,879.12,829.5,751,694.01
	c135.3-143.65,269.39-286,408.08-433.24c-99.16-87.01-196.04-172.02-284.67-249.78C650.65,229.97,431.26,444.67,207.18,663.96
	C423.96,892.74,638.77,1119.45,859.31,1352.19z"/>
<g>
	<path class="st3" d="M15.28,2386.47c-0.32-367.54,299.36-663.95,671.15-663.82c364.6,0.13,664.29,299.63,664.3,663.88
		c0.01,373.8-295.55,671.83-666.1,671.67C309.9,3058.04,15.61,2762.7,15.28,2386.47z M916.73,2637.59
		c-77.06-81.5-151.99-160.74-229.29-242.49c81.64-86.67,162.54-172.56,246.22-261.4c-59.83-52.5-118.29-103.79-171.76-150.71
		c-135.01,132.12-267.39,261.67-402.59,393.98c130.8,138.04,260.41,274.82,393.47,415.25
		C809.32,2738.89,862.05,2689.16,916.73,2637.59z"/>
	<path class="st1" d="M752.78,2792.22c56.54-53.32,109.27-103.06,163.95-154.63c-77.06-81.5-151.99-160.74-229.29-242.49
		c81.64-86.67,162.54-172.56,246.22-261.4c-59.83-52.5-118.29-103.79-171.76-150.71c-135.01,132.12-267.39,261.67-402.59,393.98
		C490.11,2515.01,619.72,2651.79,752.78,2792.22z"/>
</g>
<g>
	<path class="st0" d="M3458.42,3273.22c364.6,0.13,664.29,299.63,664.3,663.88c0.01,373.8-295.55,671.83-666.1,671.67
		c-374.72-0.16-669.02-295.5-669.35-671.73C2786.95,3569.51,3086.64,3273.09,3458.42,3273.22z"/>
	<path class="st1" d="M3462,4076.87c3.85,0,7.69,0,11.54,0c95.06,0.01,190.12,0.08,285.18,0.01
		c67.71-0.05,121.77-42.74,134.23-109.38c14.74-78.84-40.09-146.22-111.59-156.16c-12.09-1.68-24.42-2.18-36.64-2.2
		c-90.7-0.17-181.41-0.08-272.11-0.07c-3.45,0-6.91,0-13.16,0c13.39-13.46,24.7-25.34,36.56-36.66
		c18.73-17.87,32.77-38.44,39.23-63.8c14.83-58.22-14.52-124.26-78.96-143.94c-48.41-14.79-91.87-4-127.73,31.54
		c-96.21,95.35-192.02,191.1-287.49,287.19c-35.23,35.46-35.18,83.08-0.04,118.49c95.42,96.14,190.85,192.29,287.42,287.27
		c34.65,34.09,78.16,42.99,123.99,26.84c43.4-15.3,70.38-46.87,78.53-93.15c7.34-41.66-4.46-77.33-33.78-107.35
		c-11.86-12.15-24.29-23.75-36.46-35.6C3461.14,4078.87,3461.57,4077.87,3462,4076.87z"/>
</g>
<g>
	<path class="st3" d="M686.42,3273.22c364.6,0.13,664.29,299.63,664.3,663.88c0.01,373.8-295.55,671.83-666.1,671.67
		c-374.72-0.16-669.02-295.5-669.35-671.73C14.95,3569.51,314.64,3273.09,686.42,3273.22z"/>
	<path class="st1" d="M690,4076.87c3.85,0,7.69,0,11.54,0c95.06,0.01,190.12,0.08,285.18,0.01
		c67.71-0.05,121.77-42.74,134.23-109.38c14.74-78.84-40.09-146.22-111.59-156.16c-12.09-1.68-24.42-2.18-36.64-2.2
		c-90.7-0.17-181.41-0.08-272.11-0.07c-3.45,0-6.91,0-13.16,0c13.39-13.46,24.7-25.34,36.56-36.66
		c18.73-17.87,32.77-38.44,39.23-63.8c14.83-58.22-14.52-124.26-78.96-143.94c-48.41-14.79-91.87-4-127.73,31.54
		c-96.21,95.35-192.02,191.1-287.49,287.19c-35.23,35.46-35.18,83.08-0.04,118.49c95.42,96.14,190.85,192.29,287.41,287.27
		c34.65,34.09,78.16,42.99,123.99,26.84c43.4-15.3,70.38-46.87,78.53-93.15c7.34-41.66-4.46-77.33-33.78-107.35
		c-11.86-12.15-24.29-23.75-36.46-35.6C689.14,4078.87,689.57,4077.87,690,4076.87z"/>
</g>
<g>
	<path class="st2" d="M2072.42,3273.22c364.6,0.13,664.29,299.63,664.3,663.88c0.01,373.8-295.55,671.83-666.1,671.67
		c-374.72-0.16-669.02-295.5-669.35-671.73C1400.95,3569.51,1700.64,3273.09,2072.42,3273.22z"/>
	<path class="st1" d="M2076,4076.87c3.85,0,7.69,0,11.54,0c95.06,0.01,190.12,0.08,285.18,0.01
		c67.71-0.05,121.77-42.74,134.23-109.38c14.74-78.84-40.09-146.22-111.59-156.16c-12.09-1.68-24.42-2.18-36.64-2.2
		c-90.7-0.17-181.41-0.08-272.11-0.07c-3.45,0-6.91,0-13.16,0c13.39-13.46,24.7-25.34,36.56-36.66
		c18.73-17.87,32.77-38.44,39.23-63.8c14.83-58.22-14.52-124.26-78.96-143.94c-48.41-14.79-91.87-4-127.73,31.54
		c-96.21,95.35-192.02,191.1-287.49,287.19c-35.23,35.46-35.18,83.08-0.04,118.49c95.42,96.14,190.85,192.29,287.41,287.27
		c34.65,34.09,78.16,42.99,123.99,26.84c43.4-15.3,70.38-46.87,78.53-93.15c7.34-41.66-4.46-77.33-33.78-107.35
		c-11.86-12.15-24.29-23.75-36.46-35.6C2075.14,4078.87,2075.57,4077.87,2076,4076.87z"/>
</g>
</svg>
